<svg width="40" height="40" viewBox="0 0 40 40" fill="none" xmlns="http://www.w3.org/2000/svg">
<mask id="mask0_23_1411" style="mask-type:alpha" maskUnits="userSpaceOnUse" x="0" y="0" width="40" height="40">
<rect width="40" height="40" fill="#D9D9D9"/>
</mask>
<g mask="url(#mask0_23_1411)">
<path fill-rule="evenodd" clip-rule="evenodd" d="M28.0747 7.24519C28.9808 6.88298 29.9675 6.68406 31 6.68406C35.4183 6.68406 39 10.327 39 14.8208C39 19.3146 35.4183 22.9576 31 22.9576C30.9159 22.9576 30.8342 22.9556 30.7547 22.9517V35.5183C30.7547 36.1756 30.5207 36.7382 30.0526 37.2062C29.5846 37.6743 29.022 37.9083 28.3648 37.9083H11.6353C10.9781 37.9083 10.4154 37.6743 9.94741 37.2062C9.47939 36.7382 9.24537 36.1756 9.24537 35.5183V22.9538C9.16389 22.9563 9.0821 22.9576 9.00002 22.9576C4.58173 22.9576 1 19.3146 1 14.8208C1 10.327 4.58173 6.68406 9.00002 6.68406C9.53692 6.68406 10.0615 6.73785 10.5687 6.84043C9.95806 7.91366 9.55503 9.08402 9.37604 10.2748L10.7397 10.5393C10.9096 9.40934 11.3323 8.24735 11.937 7.23347L11.9335 7.23219C13.8041 4.2575 16.7219 2.34447 20 2.34447C22.839 2.34447 25.4077 3.77927 27.26 6.09586C26.1749 6.58513 25.2086 7.28922 24.4172 8.15441L25.34 9.17492C26.0807 8.36516 27.0428 7.68777 28.0737 7.2436L28.0747 7.24519ZM17.0126 34.7781H15.2202V32.3882H12.8303V30.5958H15.2202V28.2058H17.0126V30.5958H19.4025V32.3882H17.0126V34.7781ZM27.1698 33.8819H21.195V32.0895H27.1698V33.8819ZM27.1698 30.8945H21.195V29.1021H27.1698V30.8945ZM19.1038 24.2625H13.129V22.47H19.1038V24.2625ZM24.1824 24.6807L22.5094 26.3536L21.2547 25.0989L22.9277 23.3662L21.2547 21.6933L22.5094 20.4386L24.1824 22.1115L25.8553 20.4386L27.1101 21.6933L25.4371 23.3662L27.1101 25.0989L25.8553 26.3536L24.1824 24.6807Z" fill="white"/>
</g>
</svg>
