<svg width="56" height="56" viewBox="0 0 56 56" fill="none" xmlns="http://www.w3.org/2000/svg">
<rect width="56" height="56" rx="8" fill="black"/>
<path fill-rule="evenodd" clip-rule="evenodd" d="M37.3497 12.7876C38.3988 12.3598 39.5413 12.1249 40.7367 12.1249C45.8527 12.1249 50 16.4272 50 21.7342C50 27.0413 45.8527 31.3435 40.7367 31.3435C40.6394 31.3435 40.5448 31.3412 40.4528 31.3366V46.1776C40.4528 46.9537 40.1818 47.6182 39.6399 48.1709C39.098 48.7236 38.4465 49 37.6855 49H18.3144C17.5534 49 16.9019 48.7236 16.36 48.1709C15.8181 47.6182 15.5471 46.9537 15.5471 46.1776V31.3391C15.4528 31.3421 15.3581 31.3435 15.2631 31.3435C10.1472 31.3435 5.99988 27.0413 5.99988 21.7342C5.99988 16.4272 10.1472 12.1249 15.2631 12.1249C15.8848 12.1249 16.4922 12.1885 17.0796 12.3096C16.3725 13.5771 15.9059 14.9593 15.6986 16.3656L17.2776 16.6779C17.4743 15.3434 17.9637 13.9712 18.6639 12.7738L18.6599 12.7723C20.8259 9.25924 24.2043 7 28.0001 7C31.2874 7 34.2616 8.69446 36.4064 11.4303C35.15 12.0081 34.0311 12.8396 33.1147 13.8614L34.1832 15.0666C35.0409 14.1103 36.1549 13.3103 37.3486 12.7858L37.3497 12.7876ZM24.5408 45.3034H22.4654V42.4809H19.6981V40.3641H22.4654V37.5417H24.5408V40.3641H27.3081V42.4809H24.5408V45.3034ZM36.3018 42.1281V44.245H29.3836V42.1281H36.3018ZM36.3018 38.6001V40.7169H29.3836V38.6001H36.3018ZM26.9622 32.8846H20.044V30.7678H26.9622V32.8846ZM32.8427 33.3786L30.9056 35.3543L29.4528 33.8725L31.3899 31.8262L29.4528 29.8505L30.9056 28.3687L32.8427 30.3444L34.7798 28.3687L36.2327 29.8505L34.2956 31.8262L36.2327 33.8725L34.7798 35.3543L32.8427 33.3786Z" fill="white"/>
</svg>
